<svg width="363" height="363" viewBox="0 0 363 363" fill="none" xmlns="http://www.w3.org/2000/svg">
<path d="M229.573 133.203L167.496 114.224C164.047 113.169 160.424 112.805 156.834 113.15C153.244 113.496 149.757 114.545 146.572 116.238C143.388 117.932 140.568 120.236 138.274 123.019C135.98 125.801 134.257 129.009 133.202 132.458L114.223 194.535C112.094 201.501 112.819 209.027 116.238 215.458C119.658 221.89 125.492 226.699 132.457 228.829L194.535 247.808C201.5 249.937 209.026 249.212 215.457 245.792C221.889 242.373 226.698 236.539 228.828 229.574L247.807 167.496C248.861 164.047 249.226 160.424 248.88 156.834C248.535 153.244 247.485 149.758 245.792 146.573C244.099 143.389 241.795 140.569 239.012 138.275C236.23 135.981 233.022 134.257 229.573 133.203ZM169.97 217.144C162.824 214.959 156.487 210.705 151.76 204.919C147.032 199.132 144.127 192.074 143.411 184.637C142.694 177.199 144.2 169.716 147.736 163.135C151.273 156.553 156.682 151.167 163.279 147.659C169.877 144.152 177.366 142.679 184.8 143.427C192.235 144.176 199.28 147.112 205.045 151.865C210.811 156.618 215.038 162.973 217.191 170.128C219.344 177.283 219.328 184.916 217.143 192.061C215.693 196.806 213.322 201.218 210.166 205.046C207.011 208.874 203.132 212.044 198.751 214.373C194.371 216.702 189.575 218.145 184.636 218.621C179.698 219.096 174.714 218.594 169.97 217.144ZM227.438 163.774C225.738 163.255 224.23 162.242 223.106 160.866C221.981 159.489 221.289 157.81 221.119 156.041C220.949 154.271 221.307 152.491 222.148 150.925C222.989 149.359 224.276 148.078 225.846 147.243C227.415 146.408 229.197 146.058 230.966 146.236C232.735 146.414 234.411 147.113 235.782 148.243C237.154 149.374 238.16 150.886 238.672 152.588C239.184 154.291 239.181 156.107 238.661 157.807C238.316 158.935 237.752 159.985 237.001 160.896C236.25 161.807 235.328 162.561 234.285 163.115C233.243 163.669 232.102 164.012 230.927 164.125C229.753 164.239 228.567 164.119 227.438 163.774Z" fill="white" fill-opacity="0.06"/>
<path d="M188.198 157.533C183.553 156.113 178.592 156.102 173.941 157.502C169.29 158.902 165.159 161.649 162.07 165.397C158.98 169.144 157.072 173.724 156.585 178.556C156.099 183.389 157.056 188.257 159.336 192.545C161.616 196.834 165.117 200.35 169.395 202.648C173.673 204.947 178.537 205.926 183.372 205.46C188.206 204.995 192.794 203.106 196.555 200.033C200.316 196.96 203.082 192.841 204.502 188.196C206.406 181.968 205.758 175.239 202.7 169.488C199.643 163.738 194.426 159.437 188.198 157.533Z" fill="white" fill-opacity="0.06"/>
<path d="M222.362 45.7834C147.674 22.9492 68.6176 64.9844 45.7834 139.672C22.9492 214.359 64.9844 293.416 139.672 316.25C214.359 339.084 293.416 297.049 316.25 222.362C339.084 147.674 297.049 68.6177 222.362 45.7834ZM242.326 232.397C239.034 243.161 231.602 252.177 221.663 257.462C211.725 262.746 200.094 263.866 189.329 260.576L129.637 242.326C118.872 239.034 109.856 231.602 104.572 221.663C99.2872 211.724 98.167 200.094 101.457 189.329L119.707 129.636C122.999 118.872 130.431 109.856 140.37 104.572C150.309 99.2872 161.94 98.1672 172.704 101.458L232.397 119.708C243.161 122.999 252.177 130.432 257.461 140.37C262.746 150.309 263.866 161.94 260.576 172.704L242.326 232.397Z" fill="white" fill-opacity="0.06"/>
</svg>
